<?xml version="1.0" encoding="UTF-8" standalone="no"?>
<!DOCTYPE svg PUBLIC "-//W3C//DTD SVG 1.1//EN" "http://www.w3.org/Graphics/SVG/1.1/DTD/svg11.dtd">
<!-- Generated by Microsoft Visio, SVG Export lwm2m_carrier_msc_init.svg SDK test -->
<svg xmlns="http://www.w3.org/2000/svg" xmlns:xlink="http://www.w3.org/1999/xlink" xmlns:ev="http://www.w3.org/2001/xml-events"
		width="8.34646in" height="8.74016in" viewBox="0 0 600.945 629.291" xml:space="preserve" color-interpolation-filters="sRGB"
		class="st16">
	<style type="text/css">
	<![CDATA[
		.st1 {stroke:#c8ced3;stroke-dasharray:4,2;stroke-linecap:butt;stroke-width:0.5}
		.st2 {fill:#ffffff;stroke:none;stroke-linecap:butt}
		.st3 {fill:#c8ced3;font-family:Arial;font-size:0.916672em}
		.st4 {fill:#00a9ce;stroke:#feffff;stroke-width:1}
		.st5 {stroke:#008bab;stroke-dasharray:8,4;stroke-linecap:butt;stroke-width:1}
		.st6 {fill:#feffff;font-family:Arial;font-size:0.916672em;font-weight:bold}
		.st7 {font-size:1em}
		.st8 {marker-end:url(#mrkr4-63);stroke:#56adbc;stroke-linecap:butt;stroke-width:1}
		.st9 {fill:#56adbc;fill-opacity:1;stroke:#56adbc;stroke-opacity:1;stroke-width:0.23584905660377}
		.st10 {fill:#ffffff;stroke:none;stroke-linecap:butt;stroke-width:7.2}
		.st11 {fill:#56adbc;font-family:Arial;font-size:0.666664em}
		.st12 {fill:#feffff;font-family:Arial;font-size:0.833336em}
		.st13 {marker-end:url(#mrkr3-107);stroke:#56adbc;stroke-dasharray:8,4;stroke-linecap:butt;stroke-width:1}
		.st14 {marker-start:url(#mrkr4-119);stroke:#00a9ce;stroke-linecap:butt;stroke-width:1}
		.st15 {fill:#00a9ce;fill-opacity:1;stroke:#00a9ce;stroke-opacity:1;stroke-width:0.28409090909091}
		.st16 {fill:none;fill-rule:evenodd;font-size:12px;overflow:visible;stroke-linecap:square;stroke-miterlimit:3}
	]]>
	</style>

	<defs id="Markers">
		<g id="lend4">
			<path d="M 2 1 L 0 0 L 2 -1 L 2 1 " style="stroke:none"/>
		</g>
		<marker id="mrkr4-63" class="st9" refX="-8.48" orient="auto" markerUnits="strokeWidth" overflow="visible">
			<use xlink:href="#lend4" transform="scale(-4.24,-4.24) "/>
		</marker>
		<g id="lend3">
			<path d="M 2 1 L 0 0 L 2 -1 " style="stroke-linecap:round;stroke-linejoin:round;fill:none"/>
		</g>
		<marker id="mrkr3-107" class="st9" orient="auto" markerUnits="strokeWidth" overflow="visible">
			<use xlink:href="#lend3" transform="scale(-4.24,-4.24) "/>
		</marker>
		<marker id="mrkr4-119" class="st15" refX="0" orient="auto" markerUnits="strokeWidth" overflow="visible">
			<use xlink:href="#lend4" transform="scale(3.52) "/>
		</marker>
	</defs>
	<g>
		<title>nRF Connect SDK diagram</title>
		<g id="shape1-1" transform="translate(646.299,17.0079) rotate(90)" display="none">
			<title>Sheet.1</title>
			<desc>Max 800 px</desc>
			<path d="M0 629.29 L595.28 629.29" class="st1"/>
			<rect x="269.206" y="622.691" width="56.8641" height="13.2001" class="st2"/>
			<text x="269.21" y="632.59" class="st3">Max 800 px</text>		</g>
		<g id="shape2-6" transform="translate(17.0079,-612.283)" display="none">
			<title>Sheet.2</title>
			<desc>Max 780 px</desc>
			<path d="M0 629.29 L566.93 629.29" class="st1"/>
			<rect x="255.033" y="622.691" width="56.8641" height="13.2001" class="st2"/>
			<text x="255.03" y="632.59" class="st3">Max 780 px</text>		</g>
		<g id="shape3-11" transform="translate(1213.06,17.0079) rotate(90)" display="none">
			<title>Sheet.3</title>
			<path d="M0 629.29 L595.28 629.29" class="st1"/>
		</g>
		<g id="shape4-14" transform="translate(17.0079,-17.0079)" display="none">
			<title>Sheet.4</title>
			<path d="M0 629.29 L566.93 629.29" class="st1"/>
		</g>
		<g id="group12-17" transform="translate(234.425,-577.559)">
			<title>Object lifeline.12</title>
			<desc>Application</desc>
			<g id="shape13-18" transform="translate(13.6063,-4.96063)">
				<title>Sheet.13</title>
				<rect x="0" y="603.78" width="51.0236" height="25.5118" class="st4"/>
			</g>
			<g id="shape14-20" transform="translate(30.6142,-38.9764)">
				<title>Sheet.14</title>
				<path d="M8.5 629.29 a0 0 0 1 1 0 0 a0 0 0 1 1 0 0 Z" class="st4"/>
			</g>
			<g id="shape15-22" transform="translate(26.0787,371.946)">
				<title>Sheet.15</title>
			</g>
			<g id="shape16-24" transform="translate(668.409,629.291) rotate(90)">
				<title>Sheet.16</title>
				<path d="M0 629.29 L350.79 629.29" class="st5"/>
			</g>
			<g id="shape12-27">
				<rect x="0" y="593.858" width="78.2362" height="35.4331" class="st4"/>
				<text x="9.17" y="614.87" class="st6">Application</text>			</g>
		</g>
		<g id="group17-30" transform="translate(439.37,-577.373)">
			<title>Object lifeline.17</title>
			<desc>LwM2M carrier library</desc>
			<g id="shape18-31" transform="translate(19.8425,-4.96063)">
				<title>Sheet.18</title>
				<rect x="0" y="603.78" width="51.0236" height="25.5118" class="st4"/>
			</g>
			<g id="shape19-33" transform="translate(36.8504,-38.9764)">
				<title>Sheet.19</title>
				<path d="M8.5 629.29 a0 0 0 1 1 0 0 a0 0 0 1 1 0 0 Z" class="st4"/>
			</g>
			<g id="shape20-35" transform="translate(30.2362,371.76)">
				<title>Sheet.20</title>
			</g>
			<g id="shape21-37" transform="translate(674.646,629.291) rotate(90)">
				<title>Sheet.21</title>
				<path d="M0 629.29 L350.6 629.29" class="st5"/>
			</g>
			<g id="shape17-40">
				<rect x="0" y="593.858" width="90.7086" height="35.4331" class="st4"/>
				<text x="6.84" y="608.27" class="st6">LwM2M carrier <tspan x="28.54" dy="1.2em" class="st7">library</tspan></text>			</g>
		</g>
		<g id="group26-44" transform="translate(52.441,-577.559)">
			<title>Object lifeline.26</title>
			<desc>LTE Link Controller</desc>
			<g id="shape27-45" transform="translate(7.08661,-4.96063)">
				<title>Sheet.27</title>
				<rect x="0" y="603.78" width="51.0236" height="25.5118" class="st4"/>
			</g>
			<g id="shape28-47" transform="translate(24.0945,-38.9764)">
				<title>Sheet.28</title>
				<path d="M8.5 629.29 a0 0 0 1 1 0 0 a0 0 0 1 1 0 0 Z" class="st4"/>
			</g>
			<g id="shape29-49" transform="translate(21.7323,371.946)">
				<title>Sheet.29</title>
			</g>
			<g id="shape30-51" transform="translate(661.89,629.291) rotate(90)">
				<title>Sheet.30</title>
				<path d="M0 629.29 L350.79 629.29" class="st5"/>
			</g>
			<g id="shape26-54">
				<rect x="0" y="593.858" width="65.1968" height="35.4331" class="st4"/>
				<text x="9.38" y="608.27" class="st6">LTE Link <tspan x="6.32" dy="1.2em" class="st7">Controller</tspan></text>			</g>
		</g>
		<g id="shape45-58" transform="translate(484.724,-390.379)">
			<title>Message.45</title>
			<desc>LWM2M_CARRIER_EVENT_CARRIER_INIT</desc>
			<path d="M0 622.3 L-202.7 622.12" class="st8"/>
			<rect x="-186.272" y="617.405" width="161.362" height="9.59985" class="st10"/>
			<text x="-186.27" y="624.6" class="st11">LWM2M_CARRIER_EVENT_CARRIER_INIT</text>		</g>
		<g id="shape53-66" transform="translate(212.173,-449.814)">
			<title>Rectangle</title>
			<desc>Supply CA security tags to LwM2M carrier library</desc>
			<rect x="0" y="583.042" width="129.954" height="46.2495" class="st4"/>
			<text x="6.34" y="603.17" class="st12">Supply CA security tags to <tspan x="16.92" dy="1.2em" class="st7">LwM2M carrier library</tspan></text>		</g>
		<g id="shape54-70" transform="translate(273.543,-300.472)">
			<title>Message.54</title>
			<desc>lte_lc_init_and_connect()</desc>
			<path d="M0 622.2 L-180.02 622.2" class="st8"/>
			<rect x="-138.725" y="617.405" width="88.945" height="9.59985" class="st10"/>
			<text x="-138.72" y="624.6" class="st11">lte_lc_init_and_connect()</text>		</g>
		<g id="shape31-77" transform="translate(273.543,-566.552)">
			<title>Message</title>
			<desc>lwm2m_carrier_init()</desc>
			<path d="M0 636.28 L202.7 636.46" class="st8"/>
			<rect x="69.3638" y="631.578" width="72.4535" height="9.59985" class="st2"/>
			<text x="69.36" y="638.78" class="st11">lwm2m_carrier_init()</text>		</g>
		<g id="shape1002-84" transform="translate(273.543,-296.552)">
			<title>Message.1001</title>
			<desc>lwm2m_carrier_run()</desc>
			<path d="M0 636.28 L202.7 636.46" class="st8"/>
			<rect x="68.6957" y="631.578" width="73.7897" height="9.59985" class="st10"/>
			<text x="68.7" y="638.78" class="st11">lwm2m_carrier_run()</text>		</g>
		<g id="shape1003-91" transform="translate(212.173,-324.91)">
			<title>Single Snip Corner Rectangle.1003</title>
			<desc>Application can now attach to the network</desc>
			<path d="M0 629.29 L129.95 629.29 L129.95 587.09 L116.96 574.09 L0 574.09 L0 629.29 Z" class="st4"/>
			<text x="5.49" y="598.69" class="st12">Application can now attach <tspan x="33.57" dy="1.2em" class="st7">to the network</tspan></text>		</g>
		<g id="shape1011-95" transform="translate(484.724,-516.379)">
			<title>Message.1011</title>
			<desc>LWM2M_CARRIER_EVENT_CERTS_INIT</desc>
			<path d="M0 622.3 L-202.7 622.12" class="st8"/>
			<rect x="-181.826" y="617.405" width="152.472" height="9.59985" class="st10"/>
			<text x="-181.83" y="624.6" class="st11">LWM2M_CARRIER_EVENT_CERTS_INIT</text>		</g>
		<g id="shape1013-102" transform="translate(273.543,-440.552)">
			<title>Return Message</title>
			<desc>event-&#62;data.certs_init</desc>
			<path d="M0 636.28 L211.18 636.47" class="st13"/>
			<rect x="67.2352" y="631.578" width="76.7107" height="9.59985" class="st10"/>
			<text x="67.24" y="638.78" class="st11">event-&#62;data.certs_init</text>		</g>
		<g id="shape1016-110" transform="translate(429.559,-248.293)">
			<title>Rectangle.1016</title>
			<desc>LwM2M carrier library thread loop</desc>
			<rect x="0" y="604.302" width="110.331" height="24.9896" class="st4"/>
			<text x="7.1" y="613.8" class="st12">LwM2M carrier library <tspan x="30.15" dy="1.2em" class="st7">thread loop</tspan></text>		</g>
		<g id="shape1017-114" transform="translate(531.496,-267.307)">
			<title>Dynamic connector</title>
			<path d="M7.09 629.29 C53.2 625.04 41.87 648.85 7.09 644.31" class="st14"/>
		</g>
	</g>
</svg>
