<?xml version="1.0" encoding="UTF-8" standalone="no"?>
<!DOCTYPE svg PUBLIC "-//W3C//DTD SVG 1.1//EN" "http://www.w3.org/Graphics/SVG/1.1/DTD/svg11.dtd">
<!-- Generated by Microsoft Visio, SVG Export overview_2.svg Page-1 -->
<svg xmlns="http://www.w3.org/2000/svg" xmlns:xlink="http://www.w3.org/1999/xlink" xmlns:ev="http://www.w3.org/2001/xml-events"
		xmlns:v="http://schemas.microsoft.com/visio/2003/SVGExtensions/" width="6.31638in" height="4.53294in"
		viewBox="0 0 454.78 326.371" xml:space="preserve" color-interpolation-filters="sRGB" class="st19">
	<v:documentProperties v:langID="1035" v:metric="true" v:viewMarkup="false"/>

	<style type="text/css">
	<![CDATA[
		.st1 {fill:#0033a0;stroke:#feffff;stroke-width:1}
		.st2 {fill:#feffff;font-family:Arial;font-size:0.916672em;font-weight:bold}
		.st3 {font-size:1em;font-weight:normal}
		.st4 {fill:#00a9ce;stroke:#feffff;stroke-width:1}
		.st5 {fill:#feffff;font-family:Arial;font-size:0.916672em}
		.st6 {font-size:1em}
		.st7 {fill:#0077c8;stroke:none;stroke-width:1}
		.st8 {fill:#ffffff;font-family:Arial;font-size:0.916672em}
		.st9 {fill:#00a9ce;stroke:none;stroke-width:1}
		.st10 {marker-end:url(#mrkr4-28);marker-start:url(#mrkr4-26);stroke:#00a9ce;stroke-dasharray:8,4;stroke-linecap:butt;stroke-width:1}
		.st11 {fill:#00a9ce;fill-opacity:1;stroke:#00a9ce;stroke-opacity:1;stroke-width:0.28409090909091}
		.st12 {marker-end:url(#mrkr4-28);marker-start:url(#mrkr4-26);stroke:#00a9ce;stroke-linecap:butt;stroke-width:1}
		.st13 {fill:#0077c8;stroke:#feffff;stroke-width:1}
		.st14 {fill:#0033a0;stroke:none;stroke-width:1}
		.st15 {font-size:1em;font-weight:bold}
		.st16 {marker-end:url(#mrkr13-64);stroke:#00a9ce;stroke-linecap:butt;stroke-width:1.5}
		.st17 {fill:#00a9ce;fill-opacity:1;stroke:#00a9ce;stroke-opacity:1;stroke-width:0.37313432835821}
		.st18 {fill:#008bab;font-family:Arial;font-size:0.666664em}
		.st19 {fill:none;fill-rule:evenodd;font-size:12px;overflow:visible;stroke-linecap:square;stroke-miterlimit:3}
	]]>
	</style>

	<defs id="Markers">
		<g id="lend4">
			<path d="M 2 1 L 0 0 L 2 -1 L 2 1 " style="stroke:none"/>
		</g>
		<marker id="mrkr4-26" class="st11" v:arrowType="4" v:arrowSize="2" v:setback="6.68" refX="6.68" orient="auto"
				markerUnits="strokeWidth" overflow="visible">
			<use xlink:href="#lend4" transform="scale(3.52) "/>
		</marker>
		<marker id="mrkr4-28" class="st11" v:arrowType="4" v:arrowSize="2" v:setback="7.04" refX="-7.04" orient="auto"
				markerUnits="strokeWidth" overflow="visible">
			<use xlink:href="#lend4" transform="scale(-3.52,-3.52) "/>
		</marker>
		<g id="lend13">
			<path d="M 3 1 L 0 0 L 3 -1 L 3 1 " style="stroke:none"/>
		</g>
		<marker id="mrkr13-64" class="st17" v:arrowType="13" v:arrowSize="2" v:setback="8.04" refX="-8.04" orient="auto"
				markerUnits="strokeWidth" overflow="visible">
			<use xlink:href="#lend13" transform="scale(-2.68,-2.68) "/>
		</marker>
	</defs>
	<g v:mID="0" v:index="1" v:groupContext="foregroundPage">
		<title>Page-1</title>
		<v:pageProperties v:drawingScale="0.0393701" v:pageScale="0.0393701" v:drawingUnits="24" v:shadowOffsetX="8.50394"
				v:shadowOffsetY="-8.50394"/>
		<v:layer v:name="Connector" v:index="0"/>
		<g id="shape1006-1" v:mID="1006" v:groupContext="shape" transform="translate(217.087,-270.744)">
			<title>Cloud.1006</title>
			<desc>Carrier A device management</desc>
			<v:userDefs>
				<v:ud v:nameU="solsh"/>
				<v:ud v:nameU="shapetype" v:val="VT0(1):26"/>
				<v:ud v:nameU="shapelook" v:val="VT0(2):26"/>
				<v:ud v:nameU="visVersion" v:val="VT0(15):26"/>
			</v:userDefs>
			<v:textBlock v:margins="rect(0,0,0,0)" v:tabSpace="42.5197"/>
			<v:textRect cx="59.5276" cy="299.058" width="119.06" height="54.6276"/>
			<path d="M44.22 279.26 A18.8443 14.04 0 0 1 77.47 279.08 A13.8314 10.3051 0 0 1 101.26 282.49 A13.9103 10.3639 0 0 1
						 117.68 287.71 A10.4932 7.81801 0 0 1 112.1 297.2 A11.85 8.82893 0 0 1 103.01 313.49 A21.3388 15.8986 0 0
						 1 73.31 321.69 A26.8751 20.0234 0 0 1 36.01 319.7 A14.7899 11.0193 0 0 1 10 310.82 A10.6872 7.96255 0 0
						 1 10.05 294.93 A9.14424 6.81296 0 1 1 17.42 282.46 A14.3352 10.6805 0 0 1 44.22 279.26 Z" class="st1"/>
			<text x="35.99" y="295.76" class="st2" v:langID="1044"><v:paragraph v:horizAlign="1"/><v:tabList/>Carrier A<v:newlineChar/><tspan
						x="10" dy="1.2em" class="st3">device management</tspan></text>		</g>
		<g id="shape1007-5" v:mID="1007" v:groupContext="shape" transform="translate(309.213,-216.116)">
			<title>Cloud.1007</title>
			<desc>Carrier B device management</desc>
			<v:userDefs>
				<v:ud v:nameU="solsh"/>
				<v:ud v:nameU="shapetype" v:val="VT0(1):26"/>
				<v:ud v:nameU="shapelook" v:val="VT0(2):26"/>
				<v:ud v:nameU="visVersion" v:val="VT0(15):26"/>
			</v:userDefs>
			<v:textBlock v:margins="rect(0,0,0,0)" v:tabSpace="42.5197"/>
			<v:textRect cx="59.5276" cy="299.058" width="119.06" height="54.6276"/>
			<path d="M44.22 279.26 A18.8443 14.04 0 0 1 77.47 279.08 A13.8314 10.3051 0 0 1 101.26 282.49 A13.9103 10.3639 0 0 1
						 117.68 287.71 A10.4932 7.81801 0 0 1 112.1 297.2 A11.85 8.82893 0 0 1 103.01 313.49 A21.3388 15.8986 0 0
						 1 73.31 321.69 A26.8751 20.0234 0 0 1 36.01 319.7 A14.7899 11.0193 0 0 1 10 310.82 A10.6872 7.96255 0 0
						 1 10.05 294.93 A9.14424 6.81296 0 1 1 17.42 282.46 A14.3352 10.6805 0 0 1 44.22 279.26 Z" class="st4"/>
			<text x="37.52" y="295.76" class="st5" v:langID="1044"><v:paragraph v:horizAlign="1"/><v:tabList/>Carrier B<v:newlineChar/><tspan
						x="10" dy="1.2em" class="st6">device management</tspan></text>		</g>
		<g id="shape1008-9" v:mID="1008" v:groupContext="shape" transform="translate(334.724,-161.489)">
			<title>Cloud.1008</title>
			<desc>Carrier C device Management</desc>
			<v:userDefs>
				<v:ud v:nameU="solsh"/>
				<v:ud v:nameU="shapetype" v:val="VT0(1):26"/>
				<v:ud v:nameU="shapelook" v:val="VT0(2):26"/>
				<v:ud v:nameU="visVersion" v:val="VT0(15):26"/>
			</v:userDefs>
			<v:textBlock v:margins="rect(0,0,0,0)" v:tabSpace="42.5197"/>
			<v:textRect cx="59.5276" cy="299.058" width="119.06" height="54.6276"/>
			<path d="M44.22 279.26 A18.8443 14.04 0 0 1 77.47 279.08 A13.8314 10.3051 0 0 1 101.26 282.49 A13.9103 10.3639 0 0 1
						 117.68 287.71 A10.4932 7.81801 0 0 1 112.1 297.2 A11.85 8.82893 0 0 1 103.01 313.49 A21.3388 15.8986 0 0
						 1 73.31 321.69 A26.8751 20.0234 0 0 1 36.01 319.7 A14.7899 11.0193 0 0 1 10 310.82 A10.6872 7.96255 0 0
						 1 10.05 294.93 A9.14424 6.81296 0 1 1 17.42 282.46 A14.3352 10.6805 0 0 1 44.22 279.26 Z" class="st4"/>
			<text x="37.22" y="295.76" class="st5" v:langID="1044"><v:paragraph v:horizAlign="1"/><v:tabList/>Carrier C<v:newlineChar/><tspan
						x="10" dy="1.2em" class="st6">device Management</tspan></text>		</g>
		<g id="shape1009-13" v:mID="1009" v:groupContext="shape" transform="translate(41.4094,-48.6758)">
			<title>Nordic Blue.1009</title>
			<desc>Application</desc>
			<v:textBlock v:margins="rect(4,4,4,4)"/>
			<v:textRect cx="59.5276" cy="275.861" width="119.06" height="101.021"/>
			<rect x="0" y="225.351" width="119.055" height="101.021" class="st7"/>
			<text x="32.62" y="279.16" class="st8" v:langID="1044"><v:paragraph v:horizAlign="1" v:bulletSize="0.166667"/><v:tabList/>Application  </text>		</g>
		<g id="shape1010-16" v:mID="1010" v:groupContext="shape" transform="translate(255.354,-48.6758)">
			<title>Nordic Blue.1010</title>
			<desc>LwM2M Carrier library</desc>
			<v:textBlock v:margins="rect(4,4,4,4)"/>
			<v:textRect cx="39.6851" cy="275.861" width="79.38" height="101.021"/>
			<rect x="0" y="225.351" width="79.3701" height="101.021" class="st9"/>
			<text x="20.43" y="272.56" class="st8" v:langID="1044"><v:paragraph v:horizAlign="1" v:bulletSize="0.166667"/><v:tabList/>LwM2M <tspan
						x="6.38" dy="1.2em" class="st6">Carrier library</tspan></text>		</g>
		<g id="shape1011-20" v:mID="1011" v:groupContext="shape" v:layerMember="0" transform="translate(321.024,-149.697)">
			<title>Dynamic connector.1011</title>
			<path d="M0.47 319.69 L0.47 319.33 L0.47 287.27 L6.66 287.27" class="st10"/>
		</g>
		<g id="shape1012-29" v:mID="1012" v:groupContext="shape" v:layerMember="0" transform="translate(301.654,-149.697)">
			<title>Dynamic connector.1012</title>
			<path d="M6.61 319.69 L6.61 319.33 L6.61 272.62 L-5.11 272.62 L-5.11 232.64 L0.52 232.64" class="st10"/>
		</g>
		<g id="shape1013-36" v:mID="1013" v:groupContext="shape" v:layerMember="0" transform="translate(269.528,-270.744)">
			<title>Dynamic connector.1013</title>
			<path d="M7.09 333.05 L7.09 333.41 L7.09 440.49" class="st12"/>
		</g>
		<g id="shape1014-43" v:mID="1014" v:groupContext="shape" transform="translate(1,-221.656)">
			<title>Cloud.1014</title>
			<desc>Other application dependent network uses (For example nRF Clo...</desc>
			<v:userDefs>
				<v:ud v:nameU="solsh"/>
				<v:ud v:nameU="shapetype" v:val="VT0(1):26"/>
				<v:ud v:nameU="shapelook" v:val="VT0(2):26"/>
				<v:ud v:nameU="visVersion" v:val="VT0(15):26"/>
			</v:userDefs>
			<v:textBlock v:margins="rect(0,0,0,0)" v:tabSpace="42.5197"/>
			<v:textRect cx="85.0394" cy="288.171" width="170.08" height="76.4015"/>
			<path d="M63.17 260.49 A26.9204 19.6362 0 0 1 110.67 260.23 A19.7591 14.4126 0 0 1 144.65 265 A19.8718 14.4949 0 0 1
						 168.12 272.31 A14.9903 10.9342 0 0 1 160.15 285.57 A16.9286 12.348 0 0 1 147.16 308.36 A30.484 22.2356 0
						 0 1 104.72 319.83 A38.393 28.0045 0 0 1 51.45 317.04 A21.1284 15.4114 0 0 1 14.28 304.62 A15.2674 11.1363
						 0 0 1 14.35 282.39 A13.0632 9.52853 0 1 1 24.89 264.96 A20.4789 14.9376 0 0 1 63.17 260.49 Z" class="st13"/>
			<text x="15.93" y="278.27" class="st5" v:langID="1044"><v:paragraph v:horizAlign="1"/><v:tabList/>Other application dependent <tspan
						x="52.64" dy="1.2em" class="st6">network uses<v:newlineChar/></tspan><tspan x="22.99" dy="1.2em"
						class="st6">(For example nRF Cloud)</tspan></text>		</g>
		<g id="shape1015-48" v:mID="1015" v:groupContext="shape" v:layerMember="0" transform="translate(78.9528,-149.697)">
			<title>Dynamic connector.1015</title>
			<path d="M7.09 319.69 L7.09 319.33 L7.09 261.45" class="st12"/>
		</g>
		<g id="shape1016-55" v:mID="1016" v:groupContext="shape" transform="translate(40.1956,-1)">
			<title>Nordic Blue.1016</title>
			<desc>Modem (Operating in «Carrier A» network)</desc>
			<v:textBlock v:margins="rect(4,4,4,4)"/>
			<v:textRect cx="147.264" cy="312.711" width="294.53" height="27.3201"/>
			<rect x="0" y="299.051" width="294.529" height="27.3201" class="st14"/>
			<text x="41.8" y="316.01" class="st8" v:langID="1044"><v:paragraph v:horizAlign="1" v:bulletSize="0.166667"/><v:tabList/>Modem (Operating in «<tspan
						class="st15">Carrier A»</tspan> network)</text>		</g>
		<g id="shape1027-59" v:mID="1027" v:groupContext="shape" v:layerMember="0" transform="translate(255.354,-97.3912)">
			<title>Dynamic connector.1027</title>
			<desc>Events (Action request, and indications)</desc>
			<v:textBlock v:margins="rect(4,4,4,4)" v:tabSpace="42.5197" v:verticalAlign="0"/>
			<v:textRect cx="-42.6819" cy="304.705" width="92.94" height="27.2035"/>
			<path d="M0 319.28 L-82.83 319.28" class="st16"/>
			<text x="-85.15" y="302.3" class="st18" v:langID="1044"><v:paragraph/><v:tabList/>Events (Action request,<v:newlineChar/><tspan
						x="-85.15" dy="1.2em" class="st6">and indications)</tspan></text>		</g>
		<g id="shape1028-67" v:mID="1028" v:groupContext="shape" v:layerMember="0" transform="translate(160.465,-77.9818)">
			<title>Dynamic connector.1028</title>
			<desc>Reports (location, battery, etc)</desc>
			<v:textBlock v:margins="rect(4,4,4,4)" v:tabSpace="42.5197"/>
			<v:textRect cx="49.4006" cy="330.907" width="72.93" height="27.2035"/>
			<path d="M0 319.28 L82.83 319.28" class="st16"/>
			<text x="16.94" y="328.51" class="st18" v:langID="1044"><v:paragraph/><v:tabList/>Reports (location,<v:newlineChar/><tspan
						x="16.94" dy="1.2em" class="st6">battery, etc)</tspan></text>		</g>
		<g id="shape1029-74" v:mID="1029" v:groupContext="shape" v:layerMember="0" transform="translate(302.126,-48.6758)">
			<title>Dynamic connector.1029</title>
			<path d="M-7.09 333.05 L-7.09 333.41 L-7.09 339.69" class="st12"/>
		</g>
		<g id="shape1030-81" v:mID="1030" v:groupContext="shape" v:layerMember="0" transform="translate(100.866,-28.3201)">
			<title>Dynamic connector.1030</title>
			<path d="M7.09 319.69 L7.09 319.33 L7.09 313.06" class="st12"/>
		</g>
	</g>
</svg>
